<svg width="43" height="45" viewBox="0 0 43 45" fill="none" xmlns="http://www.w3.org/2000/svg">
<g opacity="0.3" filter="url(#filter0_f_9_874)">
<path d="M18.6854 11.6248C20.4271 10.6192 22.5729 10.6192 24.3146 11.6248C26.0563 12.6303 27.1292 14.4887 27.1292 16.4998C27.1292 18.5109 26.0563 20.3692 24.3146 21.3748C22.5729 22.3803 20.4271 22.3803 18.6854 21.3748C16.9437 20.3692 15.8708 18.5109 15.8708 16.4998C15.8708 14.4887 16.9437 12.6303 18.6854 11.6248Z" fill="#FE7B45"/>
</g>
<g opacity="0.4" filter="url(#filter1_f_9_874)">
<path d="M18.5 16.7321C20.3564 15.6603 22.6436 15.6603 24.5 16.7321L24.9952 17.018C26.8516 18.0898 27.9952 20.0705 27.9952 22.2141V22.7859C27.9952 24.9295 26.8516 26.9103 24.9952 27.9821L24.5 28.268C22.6436 29.3398 20.3564 29.3398 18.5 28.268L18.0048 27.9821C16.1484 26.9103 15.0048 24.9295 15.0048 22.7859V22.2141C15.0048 20.0705 16.1484 18.0898 18.0048 17.018L18.5 16.7321Z" fill="#FE7B45"/>
</g>
<path d="M18.5 3.73207C20.3564 2.66027 22.6436 2.66027 24.5 3.73207L27.5933 5.51797C29.4497 6.58977 30.5933 8.57053 30.5933 10.7141V14.2859C30.5933 16.4295 29.4497 18.4103 27.5933 19.4821L24.5 21.268C22.6436 22.3398 20.3564 22.3398 18.5 21.268L15.4067 19.4821C13.5503 18.4103 12.4067 16.4295 12.4067 14.2859V10.7141C12.4067 8.57053 13.5503 6.58977 15.4067 5.51797L18.5 3.73207Z" fill="#FE7B45"/>
<g clip-path="url(#clip0_9_874)">
<path d="M18.547 12.591L21.5682 7.57812V7.58051L21.5689 7.57812L24.5896 12.5903L24.5912 12.5911L21.57 14.3769V14.3764L21.5689 14.377L21.5682 14.3763V14.3769L18.547 12.591Z" fill="white"/>
<path d="M21.5682 17.4198V17.4219L18.5469 13.1644L21.5682 14.9493V14.9502L21.5689 14.9493L24.5919 13.1644L21.5689 17.4219L21.5682 17.4198Z" fill="white"/>
</g>
<defs>
<filter id="filter0_f_9_874" x="9.87083" y="4.87061" width="23.2583" height="23.2583" filterUnits="userSpaceOnUse" color-interpolation-filters="sRGB">
<feFlood flood-opacity="0" result="BackgroundImageFix"/>
<feBlend mode="normal" in="SourceGraphic" in2="BackgroundImageFix" result="shape"/>
<feGaussianBlur stdDeviation="3" result="effect1_foregroundBlur_9_874"/>
</filter>
<filter id="filter1_f_9_874" x="0.00480938" y="0.928223" width="42.9904" height="43.1436" filterUnits="userSpaceOnUse" color-interpolation-filters="sRGB">
<feFlood flood-opacity="0" result="BackgroundImageFix"/>
<feBlend mode="normal" in="SourceGraphic" in2="BackgroundImageFix" result="shape"/>
<feGaussianBlur stdDeviation="7.5" result="effect1_foregroundBlur_9_874"/>
</filter>
<clipPath id="clip0_9_874">
<rect width="10.5" height="10.5" fill="white" transform="translate(16.25 7.25)"/>
</clipPath>
</defs>
</svg>
